<svg xmlns="http://www.w3.org/2000/svg" width="150" height="150" viewBox="0 0 150 150"><defs><style>.a{fill:none;}.b{fill:#fff;}</style></defs><g transform="translate(-483.5 -436.5)"><rect class="a" width="150" height="150" rx="75" transform="translate(483.5 436.5)"/><g transform="translate(416.425 346.773)"><path class="b" d="M232.048,315.263h23.741a2.179,2.179,0,0,0,1.833-3.356l-6.451-10.046a2.179,2.179,0,0,0-1.833-1H237.312a2.179,2.179,0,0,0-1.93,1.168l-5.264,10.046a2.179,2.179,0,0,0,1.93,3.19Zm6.583-10.046h9.517l3.653,5.689H235.649Z" transform="translate(-95.261 -123.408)"/><path class="b" d="M107.421,322.828H88.754a2.179,2.179,0,1,1,0-4.358h18.667V316.3l7.526,4.346L107.421,325Z" transform="translate(0 -133.675)"/><path class="b" d="M198.482,309.568l-2.33-.424-2.4-5.682a2.179,2.179,0,0,0-1.445-1.258l-22.149-5.92L161.1,282.592a2.179,2.179,0,0,0-1.817-.976H122.228a2.178,2.178,0,0,0-1.866,1.054l-5.351,8.883a2.179,2.179,0,0,0,3.732,2.249l4.716-7.829h34.652l8.871,13.406a2.178,2.178,0,0,0,1.254.9l21.917,5.858,2.44,5.785a2.18,2.18,0,0,0,1.618,1.3l1.482.269-.286,2.493H178.221a9.182,9.182,0,0,0-18.315,0H128.6a9.182,9.182,0,0,0-18.315,0H95.357l-.416-2.535,1.2-.232a2.179,2.179,0,0,0,1.691-1.576l.994-3.715,9.039-1.092a2.179,2.179,0,0,0-.523-4.326l-10.5,1.269a2.179,2.179,0,0,0-1.843,1.6L93.975,309.2l-1.94.375a2.179,2.179,0,0,0-1.736,2.492l1.057,6.451a2.179,2.179,0,0,0,2.15,1.826h17.525a9.181,9.181,0,0,0,16.82,0h32.8a9.181,9.181,0,0,0,16.82,0h19.878a2.179,2.179,0,0,0,2.165-1.93l.74-6.451A2.179,2.179,0,0,0,198.482,309.568Zm-79.04,11.915a4.827,4.827,0,1,1,4.827-4.827A4.833,4.833,0,0,1,119.441,321.483Zm49.622,0a4.827,4.827,0,1,1,4.827-4.827A4.833,4.833,0,0,1,169.064,321.483Z" transform="translate(-2.456 -110.614)"/><path class="b" d="M91.786,146.6l19.986,6.39a2.183,2.183,0,0,0,.664.1h12.951a2.179,2.179,0,0,0,0-4.358H112.776l-18.147-5.8v-3.3l2.625-4a2.178,2.178,0,0,0,.324-1.571l-2.535-14.485h5.074l13.123,18.805a2.179,2.179,0,0,0,1.787.932h68.464c6.288.7,12.423,2.912,12.423,4.5,0,1.635-5.9,4.013-12.178,4.921l-32.455.076a2.178,2.178,0,0,0-1.2.363l-15.407,10.211h-1.694L138.92,149l1.881,1.076-.036-8.69-7.508,4.376,1.881,1.076-7.8,13.645a2.179,2.179,0,0,0,1.891,3.26h6.106a2.177,2.177,0,0,0,1.2-.363l15.41-10.212,31.954-.075a2.2,2.2,0,0,0,.3-.021,50.51,50.51,0,0,0,7.462-1.716c5.716-1.829,8.614-4.367,8.614-7.542,0-3.212-2.969-5.685-8.825-7.35a51.481,51.481,0,0,0-7.6-1.491,2.229,2.229,0,0,0-.234-.012H116.163L103.04,116.158a2.179,2.179,0,0,0-1.787-.932h-8.8a2.179,2.179,0,0,0-2.146,2.554l2.833,16.19-2.508,3.822a2.179,2.179,0,0,0-.357,1.2v5.538A2.179,2.179,0,0,0,91.786,146.6Z" transform="translate(-2.457 0)"/><path class="b" d="M324.865,248.459l-6.462,6.429-6.39-6.46a2.179,2.179,0,1,0-3.1,3.065l7.927,8.013a2.179,2.179,0,0,0,1.54.647h.009a2.178,2.178,0,0,0,1.537-.634l8.011-7.97a2.179,2.179,0,0,0-3.073-3.09Z" transform="translate(-147.392 -88.122)"/><path class="b" d="M118.238,247.782h-.009a2.178,2.178,0,0,0-1.537.634l-8.011,7.97a2.179,2.179,0,0,0,3.073,3.09l6.462-6.429,6.39,6.46a2.179,2.179,0,1,0,3.1-3.065l-7.927-8.014A2.179,2.179,0,0,0,118.238,247.782Z" transform="translate(-14.269 -88.122)"/></g></g></svg>