<svg xmlns="http://www.w3.org/2000/svg" width="66" height="64" viewBox="0 0 66 64"><defs><style>.a{fill:#c51745;}</style></defs><g transform="translate(0 -7.801)"><g transform="translate(0 36.791)"><g transform="translate(0 0)"><path class="a" d="M62.445,212.627,57.2,210.234l-4.625-7.468a7.506,7.506,0,0,0-6.388-3.59h-19.8a7.593,7.593,0,0,0-6.011,3.03l-5.951,7.877L4.444,212.84A6.076,6.076,0,0,0,0,218.7v3.848a6.009,6.009,0,0,0,6.011,6.014h.768a7.608,7.608,0,0,0,14.688,0H43.779a7.608,7.608,0,0,0,14.688,0h1.491A6.008,6.008,0,0,0,66,222.58v-4.423A6.12,6.12,0,0,0,62.445,212.627ZM14.116,231.214a4.635,4.635,0,1,1,4.61-4.635A4.623,4.623,0,0,1,14.116,231.214Zm37,0a4.635,4.635,0,1,1,4.61-4.635A4.623,4.623,0,0,1,51.116,231.214Zm8.858-5.681H58.663a7.621,7.621,0,0,0-15.125,0H21.679a7.762,7.762,0,0,0-7.563-6.68,7.762,7.762,0,0,0-7.563,6.68H6.026A3,3,0,0,1,3,222.58V218.7a3.061,3.061,0,0,1,2.23-2.939l10.485-2.878a1.47,1.47,0,0,0,.8-.545l6.267-8.3a4.581,4.581,0,0,1,3.6-1.833h19.78A4.536,4.536,0,0,1,50,204.387l4.866,7.832a1.533,1.533,0,0,0,.648.591l5.649,2.59a3.046,3.046,0,0,1,1.778,2.772v4.378h.03A2.988,2.988,0,0,1,59.974,225.534Z" transform="translate(0 -199.176)"/></g></g><g transform="translate(30.748 21.794)"><g transform="translate(0 0)"><path class="a" d="M209.493,100.176a5.423,5.423,0,1,0,5.393,5.423A5.4,5.4,0,0,0,209.493,100.176Zm0,7.816a2.393,2.393,0,1,1,2.38-2.393A2.392,2.392,0,0,1,209.493,107.992Z" transform="translate(-204.1 -100.176)"/></g></g><g transform="translate(19.249 7.801)"><g transform="translate(0 0)"><path class="a" d="M161.088,14.629a23.2,23.2,0,0,0-32.872,0,1.511,1.511,0,0,0,2.139,2.136,20.162,20.162,0,0,1,28.609,0,1.494,1.494,0,0,0,2.124,0A1.514,1.514,0,0,0,161.088,14.629Z" transform="translate(-127.775 -7.801)"/></g></g><g transform="translate(25.413 15.068)"><g transform="translate(0 0)"><path class="a" d="M189.705,60.048a14.528,14.528,0,0,0-20.579,0,1.512,1.512,0,0,0,2.139,2.136,11.521,11.521,0,0,1,16.315,0,1.442,1.442,0,0,0,1.055.454,1.515,1.515,0,0,0,1.507-1.515A1.569,1.569,0,0,0,189.705,60.048Z" transform="translate(-168.687 -55.776)"/></g></g></g></svg>