<svg xmlns="http://www.w3.org/2000/svg" width="20" height="20" viewBox="0 0 20 20"><defs><style>.a{fill:#475993;}</style></defs><path class="a" d="M109.305,93H94.695A2.7,2.7,0,0,0,92,95.695v14.61A2.7,2.7,0,0,0,94.695,113H101.9l.012-7.147h-1.857a.438.438,0,0,1-.438-.436l-.009-2.3a.438.438,0,0,1,.438-.44H101.9v-2.226a3.637,3.637,0,0,1,3.882-3.99h1.891a.438.438,0,0,1,.438.438v1.942a.438.438,0,0,1-.438.438h-1.161c-1.253,0-1.5.6-1.5,1.469v1.927h2.754a.438.438,0,0,1,.435.489l-.273,2.3a.438.438,0,0,1-.435.387H105.03L105.018,113h4.287a2.7,2.7,0,0,0,2.695-2.7V95.695A2.7,2.7,0,0,0,109.305,93Zm0,0" transform="translate(-92 -93)"/></svg>