<svg xmlns="http://www.w3.org/2000/svg" width="150.5" height="150" viewBox="0 0 150.5 150"><defs><style>.a{fill:none;}.b{fill:#fff;}</style></defs><g transform="translate(-807.5 -436.5)"><rect class="a" width="150" height="150" rx="75" transform="translate(807.5 436.5)"/><g transform="translate(783.557 346.426)"><path class="b" d="M47.541,213.986a2.46,2.46,0,1,0-4.085-2.743v0a2.461,2.461,0,1,0,4.085,2.746Z" transform="translate(-12.494 -60.86)"/><path class="b" d="M29.056,296.274a2.459,2.459,0,0,0,.551,4.856,2.509,2.509,0,0,0,.558-.062,2.46,2.46,0,1,0-1.109-4.793Z" transform="translate(-1.818 -118.682)"/><path class="b" d="M33.133,237.147a2.46,2.46,0,1,0,1.565,3.107A2.456,2.456,0,0,0,33.133,237.147Z" transform="translate(-3.667 -78.913)"/><path class="b" d="M26.9,271.348a2.471,2.471,0,1,0-.115,0C26.828,271.348,26.868,271.348,26.9,271.348Z" transform="translate(0 -98.672)"/><path class="b" d="M100.971,166.818a2.624,2.624,0,0,0,.827,5.115,2.579,2.579,0,0,0,.827-.135,2.624,2.624,0,1,0-1.654-4.98Z" transform="translate(-50.212 -31.652)"/><path class="b" d="M87.575,175.125a2.625,2.625,0,1,0-1.1,3.543h0A2.624,2.624,0,0,0,87.575,175.125Z" transform="translate(-39.093 -36.38)"/><path class="b" d="M121.859,164.641a2.624,2.624,0,1,0-2.595,3.035,2.529,2.529,0,0,0,.413-.033A2.625,2.625,0,0,0,121.859,164.641Z" transform="translate(-61.95 -28.793)"/><path class="b" d="M70.072,188.593a2.626,2.626,0,1,0-2.1-1.043A2.6,2.6,0,0,0,70.072,188.593Z" transform="translate(-28.893 -42.846)"/><path class="b" d="M137.217,161.086a2.625,2.625,0,1,0-.039,5.249h.02a2.625,2.625,0,0,0,.02-5.249Z" transform="translate(-73.997 -27.892)"/><path class="b" d="M56.654,200.566a2.628,2.628,0,0,0,1.9-.814v0a2.625,2.625,0,1,0-1.9.817Z" transform="translate(-19.878 -50.893)"/><path class="b" d="M155.552,162.745a2.624,2.624,0,1,0-.9,5.171,2.663,2.663,0,0,0,.453.039,2.624,2.624,0,0,0,.45-5.21Z" transform="translate(-86.026 -28.98)"/><ellipse class="b" cx="2.625" cy="2.625" rx="2.625" ry="2.625" transform="translate(48.445 203.303)"/><path class="b" d="M129.45,381.98a2.184,2.184,0,1,0,2.184,2.184A2.184,2.184,0,0,0,129.45,381.98Z" transform="translate(-69.088 -176.313)"/><path class="b" d="M159.219,381.559a1.743,1.743,0,1,0,1.743,1.743A1.743,1.743,0,0,0,159.219,381.559Z" transform="translate(-89.386 -176.03)"/><path class="b" d="M187.527,373.661a1.3,1.3,0,1,0,1.3,1.3A1.3,1.3,0,0,0,187.527,373.661Z" transform="translate(-108.703 -170.723)"/><path class="b" d="M212.495,358.963a.861.861,0,1,0,.861.861A.861.861,0,0,0,212.495,358.963Z" transform="translate(-125.776 -160.848)"/><path class="b" d="M232.435,338.537a.42.42,0,1,0,.42.42A.42.42,0,0,0,232.435,338.537Z" transform="translate(-139.47 -147.123)"/><path class="b" d="M54.2,305.546a6.926,6.926,0,0,0-6.926,6.926c0,3.825,6.926,15.675,6.926,15.675s6.926-11.85,6.926-15.675A6.926,6.926,0,0,0,54.2,305.546Zm0,8.822a2.843,2.843,0,1,1,2.843-2.843A2.844,2.844,0,0,1,54.2,314.368Z" transform="translate(-15.342 -124.956)"/><path class="b" d="M242.1,133.177a2.313,2.313,0,0,0,1.8-2.255h6.25l.349-2.13-1.082-.21-.454-1.7-3.467-.419-4.829-6.893H228.433l-3.142,4.749-7.577,2.025-.943,2.235-1.152.21.244,2.13h7.027a2.312,2.312,0,0,0,1.481,2.157,38.668,38.668,0,0,0-13.488,5.94l-1.741-1.972-3.333,9.924L216.07,144.9l-1.685-1.91a33.854,33.854,0,1,1,17.866,62.083c-14.47-.345-25.619-12.411-33.136-35.861-2.857-8.912-5.365-15.537-9.032-21.017a31.671,31.671,0,0,0-16.715-12.837,2.625,2.625,0,0,0-1.726,4.959v0c13.3,4.631,17.532,15.083,22.475,30.5,3.4,10.618,7.652,19.229,12.626,25.594,7.031,9,15.572,13.679,25.384,13.913q.48.011.958.011a39.106,39.106,0,0,0,9.014-77.152ZM229.34,121.7h4.152l1.99,3.317H227.21Zm-2.575,10.92a2.3,2.3,0,0,0,.751-1.7h11.758a2.307,2.307,0,0,0,.937,1.856,39.308,39.308,0,0,0-13.446-.154Z" transform="translate(-97.72 0)"/></g></g></svg>