<svg xmlns="http://www.w3.org/2000/svg" width="68" height="48" viewBox="0 0 68 48"><defs><style>.a{fill:none;}.b{fill:#c51745;}</style></defs><g transform="translate(-749 -2219)"><rect class="a" width="68" height="48" transform="translate(749 2219)"/><path class="b" d="M132.32,147.606a9.1,9.1,0,0,0-11.908-12.764,18.22,18.22,0,0,0-34.5,1.923,15.385,15.385,0,0,0,.876,30.6h37.124a11.713,11.713,0,0,0,8.405-19.759Zm-8.23-10.142a5.6,5.6,0,0,1,5.428,7.868,11.746,11.746,0,0,0-5.6-1.4h-2.276a18.333,18.333,0,0,0-.175-5.945A5.611,5.611,0,0,1,124.09,137.464ZM103.6,126.973a14.692,14.692,0,0,1,14.184,19.059h0a8.917,8.917,0,0,1-3.677,5.6,7.894,7.894,0,0,1-12.433-4.9h0A14.158,14.158,0,0,0,99.4,142.71a18.525,18.525,0,0,0-9.631-5.945A14.883,14.883,0,0,1,103.6,126.973Zm20.313,37.069H86.966a11.89,11.89,0,1,1,0-23.78h.35a13.481,13.481,0,0,1,9.106,4.9c3.327,4.371,1.926,10.317,1.051,12.24l-2.276-.874,1.4,5.77,5.253-3.147-1.226-.525a18.163,18.163,0,0,0,1.226-4.371h0a11.39,11.39,0,0,0,4.9,2.273h2.276a11.569,11.569,0,0,0,6.654-2.1,12.24,12.24,0,0,0,4.728-6.645l3.152-.35a8.308,8.308,0,1,1,.35,16.611Z" transform="translate(679.476 2097.636)"/></g></svg>