<svg xmlns="http://www.w3.org/2000/svg" width="68" height="48" viewBox="0 0 68 48"><defs><style>.a{fill:none;}.b{fill:#c51745;}</style></defs><g transform="translate(-624 -2219)"><rect class="a" width="68" height="48" transform="translate(624 2219)"/><path class="b" d="M125.19,99.148l-4.174-5.565-4.174,5.7h2.783v11.826c0,4.591-5.009,7.652-9.183,9.322a53.667,53.667,0,0,1-9.6,2.783c-.974.139-5.287-1.113-9.6-2.922s-9.322-4.87-9.322-9.183V84.678l18.783-3.9,17.948,3.757L97.085,116.122l-2.226-.557L114.2,87.878a1.391,1.391,0,0,0-.835-2.226l-4.87-.974a1.391,1.391,0,0,0-1.391.557L88.6,111.948a4.41,4.41,0,0,1-1.391-1.53l16.557-24.626a1.391,1.391,0,0,0-.835-2.087l-3.339-.7a1.419,1.419,0,0,0-.557,2.783l1.391.278L84.563,109.3a1.391,1.391,0,0,0-.278.835c0,1.809,1.391,3.478,3.9,5.009a1.391,1.391,0,0,0,1.809-.417L108.772,87.6l1.948.417-19.061,27.27a1.391,1.391,0,0,0,.557,2.087,18.226,18.226,0,0,0,5.426,1.67,1.391,1.391,0,0,0,1.391-.557l23.1-34.087a1.391,1.391,0,0,0-.835-2.087L100.981,78h-.557L80.111,82.174A1.391,1.391,0,0,0,79,83.565v27.409a10.145,10.145,0,0,0,3.617,7.374A20.948,20.948,0,0,0,89.99,122.8a60.938,60.938,0,0,0,10.435,3.2h.417c.835-.139,21.426-3.478,21.426-14.887V99.148h2.922Z" transform="translate(556.002 2141)"/></g></svg>