<svg xmlns="http://www.w3.org/2000/svg" width="68" height="48" viewBox="0 0 68 48"><defs><style>.a{fill:none;}.b{fill:#c51745;}</style></defs><g transform="translate(-874 -2219)"><rect class="a" width="68" height="48" transform="translate(874 2219)"/><g transform="translate(773 2129)"><path class="b" d="M170.021,176.482a16.95,16.95,0,0,0-12-3.15c-7.2.9-12.15,4.8-14.7,11.55-1.2,3.15-1.35,6.75-.3,11.1a19.983,19.983,0,0,0,.75,2.85v.45a1.2,1.2,0,0,0,.6.75h.9c.75-.3.9-.75.75-1.65v-.75a20.593,20.593,0,0,1-.6-11.55,14.89,14.89,0,0,1,17.1-10.5,15.3,15.3,0,0,1,8.85,5.1,14.7,14.7,0,0,1,3.6,9.45,4.268,4.268,0,0,1-4.2,4.5h-.15a4.05,4.05,0,0,1-3-1.2,4.65,4.65,0,0,1-1.35-3.15,6.6,6.6,0,0,0-8.4-6.3c-3.3.9-4.95,3.6-4.8,7.95h0c.15,4.95,2.7,9.3,7.05,12.45a18.958,18.958,0,0,0,3.9,1.95l.9.45-.75,1.95,5.7-1.35-2.85-5.1-1.05,2.4h-.45a14.4,14.4,0,0,1-10.05-13.95,3.9,3.9,0,0,1,1.5-3.15,4.316,4.316,0,0,1,7.05,3.45c0,1.95,2.4,6.15,6.3,6.3a6.6,6.6,0,0,0,6.75-4.95,11.414,11.414,0,0,0-.3-5.55,17.4,17.4,0,0,0-6.75-10.35Z" transform="translate(-23.221 -70.732)"/><path class="b" d="M186.219,235.2l-1.2-1.35c-3.15-4.2-4.5-8.7-3.9-13.2s4.5-8.25,8.85-8.4h.45a9.819,9.819,0,0,1,9.75,7.8,7.5,7.5,0,0,1,.15.9,5.55,5.55,0,0,0,.15,1.2,1.336,1.336,0,0,0,1.2.75c.45,0,1.05-.6,1.05-1.65a11.663,11.663,0,0,0-11.4-11.25h0a12.191,12.191,0,0,0-8.1,2.55,14.384,14.384,0,0,0-4.5,11.4,22.56,22.56,0,0,0,6.3,13.5,1.5,1.5,0,0,0,1.05.45h0l.75-.3a1.337,1.337,0,0,0,0-1.8Z" transform="translate(-54.119 -102)"/><path class="b" d="M155.5,147.8l-.6-.9c-4.95-6.6-11.7-9.6-19.95-9.15a21.582,21.582,0,0,0-13.65,5.7,17.69,17.69,0,0,0-2.7,3.15l-.6.75-2.4-2.1L115,152l6.75-1.5-1.95-1.8h.15a19.8,19.8,0,0,1,9.75-7.5,20.7,20.7,0,0,1,12.3-.45,19.42,19.42,0,0,1,11.25,7.95l.6.6h.3a1.462,1.462,0,0,0,1.35-.6A1.05,1.05,0,0,0,155.5,147.8Z" transform="translate(0 -40.551)"/><path class="b" d="M181.7,96.3h.75l.45-.3h.3a22.178,22.178,0,0,1,14.55-2.25A21.036,21.036,0,0,1,204.5,96l-1.65,3.15,8.1-1.2-3.3-7.95-1.8,3.6a27.632,27.632,0,0,0-11.7-3,22.2,22.2,0,0,0-12.45,3.3h-.3c-.75.45-1.05,1.05-.6,1.65S181.4,96.3,181.7,96.3Z" transform="translate(-55.752)"/><path class="b" d="M263.561,290.414a9,9,0,0,1-9.6-4.05,11.418,11.418,0,0,1-1.65-5.25c-.15-2.1-.75-1.2-1.2-1.2a1.319,1.319,0,0,0-1.2,1.35,4.5,4.5,0,0,0,0,.75v.45a10.921,10.921,0,0,0,3.15,6.9,11.7,11.7,0,0,0,8.55,3.6h.15l2.25-.3c.6-.15.9-.3,1.05-.6a1.2,1.2,0,0,0,0-.9C264.911,290.264,264.011,290.414,263.561,290.414Z" transform="translate(-114.661 -161.264)"/></g></g></svg>