<svg xmlns="http://www.w3.org/2000/svg" width="543.422" height="400" viewBox="0 0 543.422 400"><defs><style>.a{fill:#ffacea;}.b{fill:#2062a9;}.c{fill:#6cceff;}.d{fill:#6f2677;}.e{fill:#577de8;}.f{fill:#eb80b0;}.g{fill:#e4e9ff;}.h{fill:#ff6e8b;}.i{fill:#3093d0;}</style></defs><g transform="translate(-659.024 -835.562)"><g transform="translate(751.891 835.562)"><g transform="translate(155.997)"><rect class="a" width="31.713" height="41.227" transform="translate(91.719 33.992)"/><path class="a" d="M800.7,1095.243a5.509,5.509,0,0,1-5.629-1.4s-10.354-11.939-15.966-18.419l48.91-61c.694-.852,1.4-1.693,2.159-2.493l.012-.01a122.043,122.043,0,0,0,12.888-19.07c12.7-23.826,8.835-41.933,11.993-71.164,14.674,7.95,29.322,15.92,44.8,22.027-1.6,6.089-3.125,12.242-4.528,18.465-4.829,21.457-10.341,32.536-25.685,48.16q-1.023,1.072-2.114,2.139c-22.351,22.162-46.927,38.9-70.038,60.25l6.466,15.039A5.455,5.455,0,0,1,800.7,1095.243Z" transform="translate(-779.11 -743.205)"/><path class="a" d="M863.373,860.821a19.1,19.1,0,1,1-19.109-19.11c.4,0,.812.012,1.212.042A19.089,19.089,0,0,1,863.373,860.821Z" transform="translate(-729.717 -828.968)"/><circle class="b" cx="22.728" cy="22.728" r="22.728" transform="translate(91.691)"/><path class="a" d="M1000.536,964.907c-18.537-15.255-38.41-4.963-48.653-27.59-8.325-18.409-11.338-40.847-26.18-55.611-.87-.872-1.807-1.712-2.775-2.537a50.752,50.752,0,0,0-17.077-8.975c-17.808-5.8-37.976-5.946-55.768-2.108a73.381,73.381,0,0,0-13.066,3.964c-.968.412-1.871.839-2.711,1.3-8.041,4.344-14.954,11.148-21.692,19.124-14.478,17.093-19,52.152-18.95,76.1l3.123,42.02a7.777,7.777,0,0,0,6.851,6.487,7.134,7.134,0,0,0,.825.048,7.761,7.761,0,0,0,7.738-8.31l1-15.825,3.328-43.653s12.718-24.245,15.255-29.051c.269-.522.429-.825.429-.825,1.49,11.593,2.694,22.9,3.678,34.014q.475,5.493.9,10.909a204.6,204.6,0,0,1-.135,33.415c11.539-2.448,23.607-2.976,34.4,2.472a34.628,34.628,0,0,1,12.165,10.287h10.716c2.646.031,5.328,2.758,7.944,7.009l.269-2.093,1.364,4.963c13.383,25.862,21.6,54.848,27.4,83.088,2.045,9.991,4.837,52.471,11.956,71.261,1.807,4.787,3.7,15.968,5.614,16.745,7.579,3.092,24.576-5.884,24.576-5.884a5.011,5.011,0,0,0,5.852-7.452v-.016a4.765,4.765,0,0,0-1.111-1.221s-12.971-2.267-13-2.3c-9.545-9.038-2.474-47.505-3-58.653-3.869-83.5-17.617-109.395-32.6-158.964-.491-1.585-.982-3.2-1.459-4.835-.586-2-1.173-4.029-1.759-6.105-.792-2.806,3.266.522,5.676,3.71a10.712,10.712,0,0,1,1.411,2.315,60.142,60.142,0,0,0,6.93,12.463c11.908,16.365,35.556,5.834,55,16.681a8.9,8.9,0,0,0,9.655-4.043A8.668,8.668,0,0,0,1000.536,964.907Z" transform="translate(-763.503 -803.483)"/><path class="c" d="M931.328,1010.951l-3.075.238-113.026,18.442-4.408.348,2.568-111.045L812.736,872c.841-.46,1.745-.887,2.713-1.3a73.383,73.383,0,0,1,13.066-3.964l2.033,7.125a26.332,26.332,0,0,0,26.17,19.089l5.359-.172a26.333,26.333,0,0,0,25.376-23.934h0a50.754,50.754,0,0,1,17.077,8.975c.968.825,1.9,1.664,2.775,2.537l23.406,123.6Z" transform="translate(-745.106 -802.132)"/><path class="b" d="M882.453,866.26a30.411,30.411,0,0,0-.959-8.325c-7.27-27.428-61.865-15.24-57.005,12.72.33,1.894.891,3.966-.052,5.641-1.513,2.692-5.407,2.267-8.48,1.967-13.278-1.3-26.678,7.89-30.785,20.583s1.059,27.654,11.8,35.573,26.162,8.573,37.831,2.106c11.626-6.445,19.3-21.035,14.758-33.527-.628-1.728-1.482-3.5-1.19-5.318.821-5.077,8.062-4.68,13.207-4.974C875,891.933,882.217,878.715,882.453,866.26Z" transform="translate(-774.121 -828.116)"/></g><g transform="translate(0 130.534)"><g transform="translate(52.752 35.072)"><rect class="a" width="20.839" height="20.802"/></g><g transform="translate(42.957)"><g transform="translate(3.385 10.686)"><path class="a" d="M762.289,923.263a18.088,18.088,0,0,1-29.815,12.227,16.606,16.606,0,0,1-1.577-1.55c-.164-.191-.317-.369-.47-.56a18.05,18.05,0,0,1,7.55-28.533,17.212,17.212,0,0,1,3.216-.891l.052-.012a19.1,19.1,0,0,1,4.512-.178c.381.027.763.077,1.144.141a15.527,15.527,0,0,1,1.716.342,18,18,0,0,1,13.673,19.014Z" transform="translate(-726.197 -903.706)"/></g><path class="d" d="M724.632,925a19.84,19.84,0,0,1,12.882-17,18.922,18.922,0,0,1,3.544-.968l.048-.01c.271-.044.545-.07.854-.112a64.831,64.831,0,0,1,8.75-.75,4.157,4.157,0,0,0,3.7-2.539,8.313,8.313,0,0,1,1.766-2.74,7.8,7.8,0,0,1,6.812-2.238c9.566,1.453,7.512,14.876-.348,15.7a6.882,6.882,0,0,1-1.811,1.013,6.7,6.7,0,0,1-3,.431l-4.692-.388a4.012,4.012,0,0,0-2.437.593v16.341a9.086,9.086,0,0,1-9.089,9.087c-4.248.008-9.137,2-11.918-1.925l-.214.209a2.516,2.516,0,0,1-.273-.3A19.767,19.767,0,0,1,724.632,925Z" transform="translate(-724.564 -898.549)"/><g transform="translate(21.545 25.306)"><path class="a" d="M744.219,915.779a4.637,4.637,0,1,1-4.24-5A4.634,4.634,0,0,1,744.219,915.779Z" transform="translate(-734.96 -910.76)"/></g></g><g transform="translate(9.809 127.142)"><g transform="translate(0.001)"><path class="a" d="M759.835,978.062c-.019-.458-.323-7.332-.748-16.888-.392-.182-.738-.342-.9-.408-.52-.205-1.053-.383-1.585-.557-.079-.008-.158-.019-.255-.027-.591-.056-1.225-.128-1.807-.236-.091-.016-.162-.031-.234-.046-1.1.124-2.166.29-3.254.466-.5.191-1.009.361-1.507.562-1.113.45-2.16,1.013-3.239,1.529-.112.052-.18.081-.228.1l-.162.108c-.529.344-1.063.682-1.587,1.034-1.074.721-2.122,1.478-3.16,2.251-2.3,1.712-4.518,3.521-6.741,5.326-2.443,1.983-4.893,3.95-7.4,5.84l2.2.514c.377,4.659,1.055,9.071,1.751,13.365.159.953.313,1.9.468,2.829.307,1.886.611,3.741.879,5.6.054.406.12.8.174,1.21.166,1.208.313,2.418.444,3.618.166,1.608.3,3.208.369,4.814.025.576.039,1.15.056,1.724.023,1.734-.025,3.461-.155,5.216-.041.578-.1,1.154-.164,1.737s-.151,1.162-.234,1.759c-.2,1.318-.452,2.651-.788,4a48.068,48.068,0,0,1-2.479,7.4,53.57,53.57,0,0,1-2.574,5.247c-1.042,1.859-7.382,16.33-12.335,28.033-.935,2.2-1.811,4.3-2.6,6.2-2.172,5.247-3.633,8.982-3.453,9.089l15.456,10.915a3.106,3.106,0,0,0,3.314.019,3.148,3.148,0,0,0,.792-4.619l-6.424-8.018c.609-.93,1.219-1.855,1.836-2.775q2.54-3.78,5.152-7.525c7.935-11.377,16.15-22.568,23.364-34.422.926-1.521,1.759-2.972,2.516-4.364,5-9.233,6.246-15.989,6-27.43C760.425,993.518,760.158,985.792,759.835,978.062Z" transform="translate(-708.57 -959.9)"/></g><g transform="translate(18.452)"><path class="e" d="M750.287,978.062q-.211-4.971-.446-9.956-.155-3.469-.323-6.94c-.381-.18-.721-.336-.883-.4-.52-.205-1.053-.383-1.585-.557-.079-.008-.157-.019-.255-.027-.591-.056-1.225-.128-1.807-.236-.091-.016-.162-.031-.234-.046-1.1.124-2.166.29-3.254.466-.5.191-1.009.361-1.507.562-1.113.45-2.16,1.013-3.239,1.529-.112.052-.18.081-.228.1l-.162.108c-.529.344-1.063.682-1.587,1.034-1.074.721-2.122,1.478-3.16,2.251-2.3,1.712-4.518,3.521-6.741,5.326-2.443,1.983-4.893,3.95-7.4,5.84l2.2.514c.377,4.659,1.055,9.071,1.751,13.365.159.953.313,1.9.468,2.829.307,1.886.611,3.741.879,5.6.054.406.12.8.174,1.21.166,1.208.313,2.418.444,3.618.166,1.608.3,3.208.369,4.814.025.576.039,1.15.056,1.724.023,1.734-.025,3.461-.155,5.216-.041.578-.1,1.154-.164,1.737s-.151,1.162-.234,1.759c-.205,1.316-.46,2.648-.8,4l22.276,5.214.3-.025c5-9.233,6.246-15.989,6-27.43C750.878,993.518,750.61,985.792,750.287,978.062Z" transform="translate(-717.473 -959.9)"/></g><g transform="translate(6.07 4.464)"><path class="c" d="M756.695,975.753q-.211-4.971-.446-9.956l-16-3.743c-.746.522-1.5,1.04-2.226,1.585-2.3,1.712-4.518,3.521-6.741,5.326-2.443,1.983-4.893,3.95-7.4,5.84l2.2.514c.377,4.659,1.055,9.071,1.751,13.365.159.953.313,1.9.468,2.829.307,1.886.611,3.741.879,5.6.054.406.12.8.174,1.21.166,1.208.313,2.418.444,3.618.166,1.608.3,3.208.369,4.814.025.576.039,1.15.056,1.724.023,1.734-.025,3.461-.155,5.216-.041.578-.1,1.154-.164,1.737s-.151,1.162-.234,1.759c-.205,1.316-.46,2.648-.8,4l.008,0a48.081,48.081,0,0,1-2.479,7.4,53.555,53.555,0,0,1-2.574,5.247c-1.042,1.859-7.382,16.33-12.335,28.033l14.072,3.291c7.935-11.377,16.15-22.568,23.364-34.422.926-1.521,1.759-2.972,2.516-4.364,5-9.232,6.246-15.988,6-27.43C757.285,991.208,757.018,983.482,756.695,975.753Z" transform="translate(-711.498 -962.054)"/></g><g transform="translate(0 110.489)"><path class="f" d="M727.353,1033.238a3.123,3.123,0,0,1-3.316-.017L708.583,1022.3c-.176-.108,1.285-3.844,3.455-9.089,3.753,1.513,7.722,3.1,11.523,4.611q-.929,1.383-1.84,2.773l6.422,8.024A3.138,3.138,0,0,1,727.353,1033.238Z" transform="translate(-708.569 -1013.215)"/></g></g><g transform="translate(37.349 133.652)"><rect class="c" width="41.501" height="21.761" transform="translate(41.501 21.761) rotate(180)"/></g><g transform="translate(57.548 132.08)"><path class="a" d="M774.833,1078.2q-2.857-8.919-5.987-17.87-3.09-8.844-6.393-17.686-4.3-11.567-8.857-23.134-4.868-12.372-9.873-24.713-1.812-4.451-3.614-8.905-4.271-10.541-8.5-21.024c1.4-.518,2.825-.982,4.253-1.386,1.152-.328,2.315-.62,3.488-.86.16-.031,2.18-.263,2.1-.292,1.67-.083,3.318-.037,5,.031.162.006.284.008.388.01.108.029.236.064.4.106.729.182,1.477.3,2.209.481,4.559,1.088,9,2.516,13.469,3.853a10.092,10.092,0,0,0,.209,1,12.528,12.528,0,0,0,2.431,4.5c.12.384.247.765.367,1.152q.314,1.007.624,2c.746,2.4,1.463,4.829,2.143,7.257.632,2.2,1.231,4.42,1.82,6.642.116.423.232.856.342,1.291.508,1.932,1.005,3.865,1.49,5.813.05.226.108.456.168.686q1.321,5.344,2.512,10.7c.238,1.051.466,2.1.7,3.156l-.017.006q1.946,8.875,3.67,17.8c1.648,8.532,3.183,17.1,4.7,25.658,1.229,6.957,2.441,13.918,3.7,20.875.189,1.078.392,2.139.578,3.208l7.825-.665a3.379,3.379,0,0,1,.41.33,2.828,2.828,0,0,1,.555,3.247,2.954,2.954,0,0,1-.307.5c-.568.725-.025.566-.945.51l-17.891,5.877C776.97,1084.981,775.919,1081.584,774.833,1078.2Z" transform="translate(-731.605 -962.282)"/><path class="c" d="M762.453,1042.642q-4.3-11.567-8.857-23.134l-.17.066-9.7-24.78q-1.812-4.451-3.614-8.905-4.271-10.541-8.5-21.024c1.4-.518,2.825-.982,4.253-1.386,1.152-.328,2.315-.62,3.488-.86.16-.031,2.18-.263,2.1-.292,1.67-.083,3.318-.037,5,.031.162.006.284.008.388.01.108.029.236.064.4.106.729.182,1.477.3,2.209.481,4.559,1.088,9,2.516,13.469,3.853a10.092,10.092,0,0,0,.209,1,12.528,12.528,0,0,0,2.431,4.5c.12.384.247.765.367,1.152q.314,1.007.624,2c.746,2.4,1.463,4.829,2.143,7.257.632,2.2,1.231,4.42,1.82,6.642.116.423.232.856.342,1.291.508,1.932,1.005,3.865,1.49,5.813.05.226.108.456.168.686q1.321,5.344,2.512,10.7c.238,1.051.466,2.1.7,3.156l-.017.006q1.946,8.875,3.67,17.8c1.648,8.532,5.8,27.789,7.313,36.352l-15.216,5.844C769.4,1065.126,764.647,1048.536,762.453,1042.642Z" transform="translate(-731.605 -962.282)"/><g transform="translate(43.711 113.079)"><path class="f" d="M773.545,1019.39l-7.821.665c-.191-1.072-.39-2.139-.58-3.208l-2.412.535-10.034,3.855c.91,2.872,1.809,5.749,2.673,8.615l17.889-5.877c.924.056.375.218.947-.514a2.437,2.437,0,0,0,.3-.5,2.809,2.809,0,0,0-.555-3.247A2.657,2.657,0,0,0,773.545,1019.39Z" transform="translate(-752.697 -1016.847)"/></g></g><g transform="translate(61.471 49.125)"><path class="a" d="M756.717,969.27a65.341,65.341,0,0,0-6.236-11.995c-3.774-5.925-5.952-12.053-8.3-18.662a58.372,58.372,0,0,0-8.679-16.283c12.461-.531,25.623,1.645,33.023,7.908,9.6,8.128,13.122,22.359,17.982,34.2.883,2.168,1.811,4.261,2.847,6.217a13.372,13.372,0,0,0,6.6,6.078l22.031,9.355a5.4,5.4,0,0,1,2.557,7.664,5.566,5.566,0,0,1-6.006,2.53c-9.332-1.969-28.046-2.974-35.56-9.572-4.309-3.782-7.363-11.355-10.513-16.21A13.029,13.029,0,0,0,756.717,969.27Z" transform="translate(-733.498 -922.254)"/></g><g transform="translate(0 52.938)"><path class="a" d="M716.768,955.147a74.187,74.187,0,0,1,19.269-24.827,55.77,55.77,0,0,1,9.052-6.226,14.067,14.067,0,0,0,1.084,7.013c2.385,5.483.887,12.646-.371,18.575l-7.761,9.183-5.687,6.74-18.879,47.325a4.833,4.833,0,0,1-9.639-.568l4.429-25.656,1.876-10.822A78.353,78.353,0,0,1,716.768,955.147Z" transform="translate(-703.836 -924.094)"/></g><g transform="translate(8.132 49.125)"><path class="g" d="M794.065,1020.807H727.79l1.56-53.563H707.76a74.168,74.168,0,0,1,14.706-27.78c4.655-5.488,9.966-10.1,16.193-12.718,14.3-6.014,43.021-7.034,55.459,3.494,9.6,8.13,13.122,22.357,17.982,34.194H792.825Z" transform="translate(-707.76 -922.254)"/></g></g></g><g transform="translate(1143.885 1001.849)"><rect class="h" width="58.561" height="143.741" rx="4.082" transform="translate(0 63.885)"/><rect class="h" width="5.324" height="159.713"/><circle class="b" cx="9.228" cy="9.228" r="9.228" transform="translate(0.532 215.257)"/></g><g transform="translate(659.025 1097.225)"><rect class="i" width="39.912" height="90.709" rx="2.782" transform="translate(35.398 127.619) rotate(-152.487)"/><path class="i" d="M683.719,1051.3l3.218,1.677,46.094-88.5a1.815,1.815,0,0,0-.771-2.448h0a1.817,1.817,0,0,0-2.448.771Z" transform="translate(-632.543 -961.824)"/><circle class="b" cx="5.031" cy="5.031" r="5.031" transform="translate(20.645 126.851)"/><path class="b" d="M700.974,982.645l3.216,1.677,10.337-19.845a1.815,1.815,0,0,0-.771-2.448h0a1.817,1.817,0,0,0-2.448.771Z" transform="translate(-614.039 -961.824)"/></g></g></svg>