<svg xmlns="http://www.w3.org/2000/svg" width="576.877" height="400" viewBox="0 0 576.877 400"><defs><style>.a{fill:#ffacea;}.b{fill:#577de8;}.c{fill:#e4e9ff;}.d{fill:#6f2677;}.e{fill:#fff;}.f{fill:#2062a9;}.g{fill:#ff6e8b;}.h{fill:#3093d0;}.i{fill:#5bc5c9;}</style></defs><g transform="translate(-998.723 -159.601)"><g transform="translate(998.722 159.601)"><g transform="translate(72 38.661)"><path class="a" d="M340.106,565.412v30.121h23.73V571.845Z" transform="translate(-340.106 -565.412)"/></g><g transform="translate(0 62.969)"><path class="a" d="M528.58,691.377a8.853,8.853,0,0,1-9.553,4.024l-44.186-9.539a21.826,21.826,0,0,1-6.759-2.749,21.294,21.294,0,0,1-8.365-9.857l-24.592-43.066c-1.39-3.344,14.347,32.313,15.33,35.8q2.431,8.532,4.863,17.078c1.694,5.964,3.4,11.941,5.079,17.918q2.172,7.618,4.3,15.253,4.95,17.78,9.565,35.646c4.532,17.629,5.051,28.54.652,44.65-.666,2.432-1.434,4.978-2.316,7.669-6.874,20.973-15.542,41.277-23.705,61.771-1.781,4.5-3.546,9-5.254,13.518-.623,1.65-1.232,3.3-1.838,4.964l12.851,10.087a5,5,0,0,1,.448,7.439,4.932,4.932,0,0,1-5.137,1.174l-27.89-11.3c-.319-.1.593-6.412,2.055-15.326.536-3.229,1.13-6.8,1.781-10.551,3.431-19.916,8-44.62,8.944-47.877a85.6,85.6,0,0,0,2.084-9.059,76.477,76.477,0,0,0,1.158-12.359c.028-2.215-.059-4.371-.232-6.485-.087-.954-.175-1.882-.276-2.808s-.232-1.837-.377-2.749c-.434-2.765-.984-5.456-1.648-8.133-.232-.882-.464-1.767-.71-2.65-.694-2.461-1.475-4.891-2.316-7.322-.637-1.811-1.3-3.633-2-5.442-.232-.609-.478-1.2-.708-1.811-1.087-2.778-2.229-5.543-3.387-8.349-.579-1.39-1.158-2.794-1.751-4.212-2.634-6.4-5.283-12.982-7.554-20.058H399.886c-.044.984-.087,1.981-.145,2.967-.1,1.91-.2,3.806-.333,5.716-.073,1.115-.145,2.229-.218,3.33-.26,3.994-.577,8-.954,12-.319,3.633-.694,7.266-1.085,10.9-.073.7-.145,1.4-.232,2.114q-.521,4.733-1.1,9.48c-.057.361-.1.738-.145,1.115q-1.086,8.684-2.374,17.323c-.246,1.694-.506,3.387-.766,5.081h-.03q-2.172,14.285-4.7,28.525c-2.416,13.6-5.022,27.2-7.655,40.771-2.142,11.029-4.314,22.055-6.412,33.1-.333,1.708-.637,3.4-.97,5.093l12,3.475a5.743,5.743,0,0,1,.418.724,4.5,4.5,0,0,1-1.027,5.136,4.723,4.723,0,0,1-.738.565c-1.259.753-.361.825-1.694.216l-29.915-1.475c.42-5.6.8-11.245,1.115-16.889q.845-14.871,1.3-29.945.455-14.892.593-29.9.217-19.625.044-39.395-.175-21.145-.565-42.32c-.1-5.095-.188-10.188-.29-15.283-.232-12.736-.478-25.443-.666-38.092-.361-23.346-.563-46.489-.29-69.24l-10.2,17.47-7.064,12.114-8.306,39.656-8.308,39.654a7.685,7.685,0,0,1-15.255,1.751l-.087-41.406-.028-17.47a124.739,124.739,0,0,1,4.7-34.3,118.025,118.025,0,0,1,23.388-44.172c7.411-8.726,15.848-16.064,25.762-20.233,22.738-9.567,68.413-11.187,88.2,5.557,15.269,12.925,20.87,35.561,28.6,54.39,1.4,3.445,2.882,6.773,4.532,9.884a21.245,21.245,0,0,0,10.491,9.668l35.04,14.878A8.58,8.58,0,0,1,528.58,691.377Z" transform="translate(-303.801 -577.669)"/></g><g transform="translate(50.495 147.934)"><path class="b" d="M449.88,754.414l-.448.145H413.045c.03-2.215-.057-4.371-.216-6.485-.087-.954-.175-1.882-.276-2.808s-.232-1.836-.377-2.749c-.434-2.765-.984-5.456-1.648-8.133-.232-.882-.464-1.767-.71-2.65-.694-2.461-1.475-4.891-2.316-7.322-.637-1.811-1.3-3.633-2-5.442-.232-.609-.478-1.2-.708-1.811-1.087-2.778-2.229-5.543-3.387-8.349-.579-1.39-1.158-2.794-1.751-4.212-2.634-6.4-5.283-12.982-7.554-20.058H374.852c-.044.984-.087,1.981-.145,2.967-.1,1.91-.2,3.806-.333,5.716-.073,1.115-.145,2.229-.218,3.33q-.411,6.012-.954,12c-.319,3.633-.694,7.266-1.085,10.9-.073.7-.145,1.4-.232,2.114q-.521,4.733-1.1,9.48c-.057.361-.1.738-.145,1.115q-1.086,8.684-2.374,17.323c-.246,1.694-.506,3.387-.766,5.081H329.538l-.276-42.32,6.816-47.05,5.384-6.324,32.608-38.354,56.213,20.435c1.694,5.964,3.4,11.941,5.079,17.918q2.172,7.619,4.3,15.253,4.95,17.78,9.565,35.646C453.759,727.393,454.278,738.3,449.88,754.414Z" transform="translate(-329.262 -620.511)"/></g><g transform="translate(48.209 186.288)"><path class="b" d="M451.013,735.4c-.666,2.432-1.434,4.978-2.316,7.669-6.874,20.973-15.542,41.277-23.705,61.771H402.008c3.431-19.916,8-44.62,8.944-47.877a85.6,85.6,0,0,0,2.084-9.059,76.466,76.466,0,0,0,1.158-12.359h-.016c.03-2.215-.057-4.371-.216-6.485-.087-.954-.174-1.882-.276-2.808s-.232-1.837-.377-2.749c-.434-2.765-.984-5.456-1.648-8.133-.232-.882-.464-1.767-.71-2.65-.694-2.461-1.476-4.891-2.316-7.322-.637-1.811-1.3-3.633-2-5.442-.232-.609-.478-1.2-.708-1.811-1.087-2.778-2.229-5.543-3.387-8.349-.579-1.39-1.158-2.794-1.751-4.212-2.634-6.4-5.283-12.982-7.554-20.058H375.986c-.044.984-.087,1.981-.145,2.967-.1,1.91-.2,3.806-.333,5.716-.073,1.115-.145,2.229-.218,3.33-.26,3.994-.577,8-.954,12-.319,3.633-.694,7.266-1.085,10.9-.073.7-.145,1.4-.232,2.114q-.521,4.733-1.1,9.48c-.058.361-.1.738-.145,1.115q-1.086,8.684-2.374,17.323c-.246,1.694-.506,3.387-.766,5.081h-.03q-2.172,14.285-4.7,28.525c-2.416,13.6-7.237,44.563-9.871,58.138H328.109c.3-9.928,2.707-37.267,2.808-47.268q.217-19.625.044-39.395h-.289l-.276-42.32c-.1-5.095-.188-10.188-.29-15.283-.232-12.736-.478-25.443-.666-38.092H436.5q2.172,7.618,4.3,15.253,4.95,17.78,9.565,35.646C454.892,708.378,455.412,719.29,451.013,735.4Z" transform="translate(-328.109 -639.85)"/></g><g transform="translate(4.707 62.97)"><path class="c" d="M441.458,644.753h30.655c-7.731-18.829-13.331-41.455-28.6-54.384-19.781-16.744-65.452-15.12-88.2-5.557-9.906,4.171-18.351,11.5-25.754,20.229a117.894,117.894,0,0,0-23.386,44.18h34.333l11.171,89.852,45.731-9.444,14.388-2.965,53.323-11.943Z" transform="translate(-306.174 -577.67)"/></g><g transform="translate(48.008 381.225)"><path class="c" d="M360.346,755.72a3.788,3.788,0,0,1-.73.565c-1.265.76-.357.835-1.7.224l-29.911-1.475c.416-5.6.789-11.245,1.117-16.891,6.719,1.043,13.912,2.13,20.81,3.157-.327,1.7-.641,3.4-.968,5.095l11.991,3.471a4.213,4.213,0,0,1,.416.716A4.465,4.465,0,0,1,360.346,755.72Z" transform="translate(-328.008 -738.143)"/></g><g transform="translate(118.21 361.831)"><path class="c" d="M396.49,753.821A4.962,4.962,0,0,1,391.352,755L363.468,743.69c-.313-.1.595-6.42,2.055-15.326,6.36.984,13.079,2,19.513,2.963-.625,1.654-1.236,3.308-1.846,4.962l12.855,10.1A4.99,4.99,0,0,1,396.49,753.821Z" transform="translate(-363.406 -728.364)"/></g><g transform="translate(67.413)"><g transform="translate(1.537 9.948)"><path class="a" d="M379.673,573.212a20.6,20.6,0,0,1-33.967,13.914,18.871,18.871,0,0,1-2.328-2.394,20.572,20.572,0,0,1,8.6-32.5,19.608,19.608,0,0,1,3.669-1l.05-.012a21.182,21.182,0,0,1,5.137-.212c.438.036.873.087,1.309.157a20.552,20.552,0,0,1,17.536,22.052Z" transform="translate(-338.567 -550.934)"/></g><path class="d" d="M377.571,546.013a8.085,8.085,0,0,0-7.052,2.318,8.626,8.626,0,0,0-1.827,2.836,4.3,4.3,0,0,1-3.836,2.628,67.183,67.183,0,0,0-9.055.777l-.026.006c-.3.038-.579.065-.859.109l-.05.012a19.586,19.586,0,0,0-3.669,1,20.576,20.576,0,0,0-8.6,32.5,2.678,2.678,0,0,0,.286.317L357.5,574.04l.561,1.452.02.147.038,0,.113.287a2.526,2.526,0,0,0,4.881-1.013l-.3-7.284.036-.436a4.2,4.2,0,0,1,4.522-3.834l4.859.4a6.913,6.913,0,0,0,3.1-.446,7.158,7.158,0,0,0,1.876-1.047C385.347,561.415,387.473,547.518,377.571,546.013Z" transform="translate(-337.792 -545.918)"/><g transform="translate(10.094 23.082)"><path class="a" d="M353.425,563.273a5.28,5.28,0,1,1-4.829-5.7A5.281,5.281,0,0,1,353.425,563.273Z" transform="translate(-342.882 -557.557)"/></g></g></g><g transform="translate(1164.011 172.088)"><g transform="translate(52.299 260.083)"><g transform="translate(59.675 2.348)"><path class="a" d="M495.029,801.707H467.643a2.593,2.593,0,0,1-2.154-4.07l.032-.032a12.757,12.757,0,0,1,6.834-4.486c3.73-.869,8.074-1.9,8.074-1.9-.05-.258-.081-.514-.129-.771-3.072-17.93-7.574-35.184-12.06-52.488-4.552-17.53-9.119-35.089-12.175-53.422,10.7.756,21.452,1.5,32.211,1.8.032.9.063,1.8.111,2.719,1.479,32.436,4.841,68.842,6.225,101.39.111,2.412.208,4.791.288,7.155C494.95,798.956,495,800.34,495.029,801.707Z" transform="translate(-456.065 -684.54)"/></g><path class="a" d="M455.868,798.77c.049,1.351.1,2.735.129,4.1H428.611a2.593,2.593,0,0,1-2.154-4.07.049.049,0,0,1,.032-.016,12.7,12.7,0,0,1,6.834-4.5c3.73-.869,8.074-1.9,8.074-1.9-.05-.258-.081-.514-.129-.771-8.877-52.906-11.322-88.783-10.582-108.258q5.405.315,10.822.484c.145.8.29,1.64.434,2.491-.127-.8-.24-1.656-.369-2.491,4.857.161,9.746.256,14.618.369-.194,37.469-.95,82.32-.5,107.405C455.741,794.236,455.8,796.616,455.868,798.77Z" transform="translate(-425.975 -683.356)"/></g><g transform="translate(0 0.713)"><path class="a" d="M440.7,596.836a19.065,19.065,0,0,1-9.385-5.89l-21.6-35.69a6.819,6.819,0,0,0-6.112-2.65l-.105.01c-2.794.274-4.446,2.285-3.722,4.532l14.053,45.077c1.287,4.014,5,7.57,9.9,9.478,0,0,48.476,19.874,50.6,21.589.1.012.188.03.284.042l.1,0c.912-.018,1.874.083,2.792.083.851,0,2.039-.117,2.628-.165a12.006,12.006,0,0,1,2.661-.547c.321-.147.666-.288.948-.409.036-.016.069-.04.105-.057-.278.03-.063-.3,1.071-.678.809-.768,1.61-1.525,2.382-2.318.057-.06.121-.135.186-.218.692-1.087.752-1.126.573-.833.113-.163.228-.325.335-.492.815-1.267,1.543-2.572,2.225-3.9a96.493,96.493,0,0,0,4.8-11.288Z" transform="translate(-399.604 -552.574)"/></g><g transform="translate(71.947 55.531)"><path class="e" d="M518.263,603.607l-17.427,54.576-61.408-3.139-3.443-42.233A30.12,30.12,0,0,1,468.1,580.29l36.009,2.475a16.32,16.32,0,0,1,4.661,1.027A16.034,16.034,0,0,1,518.263,603.607Z" transform="translate(-435.882 -580.215)"/></g><g transform="translate(92.499 55.531)"><path class="a" d="M498.58,583.793c-1.246,7.106-12.447,12.665-26.109,12.665-14.487,0-26.226-6.253-26.226-13.982,0-.232.016-.478.03-.708a29.833,29.833,0,0,1,11.636-1.477l36.009,2.475A16.319,16.319,0,0,1,498.58,583.793Z" transform="translate(-446.245 -580.215)"/></g><g transform="translate(53.231 127.757)"><path class="f" d="M447.836,616.633c7.53,0,63.925,3.29,63.925,3.29l10.886,23.585a38.849,38.849,0,0,1,3.481,18.975L518.51,771.9l-92.065-5.527Z" transform="translate(-426.445 -616.633)"/></g><g transform="translate(100.01 68.001)"><path class="a" d="M450.516,692.856l-.028-.107a6.778,6.778,0,0,1,.932-6.592l31.311-32.636a19.053,19.053,0,0,0,3.2-10.61s-.194-44.579.523-46.923v-.055l.022-.022a13.359,13.359,0,0,1,8.984-8.849l.032-.03.026.006c.069-.014.125-.038.182-.053a13.385,13.385,0,0,1,16.453,9.363c.9,3.268-7.394,59-7.394,59-.539,5.228-2.989,9.753-6.5,12.058L455.874,695.24C453.893,696.533,451.527,695.468,450.516,692.856Z" transform="translate(-450.032 -586.502)"/></g><g transform="translate(92.049)"><ellipse class="g" cx="21.97" cy="21.858" rx="21.97" ry="21.858"/></g><g transform="translate(106.12 13.812)"><path class="g" d="M529.975,597.116a27.279,27.279,0,0,0-23.065-14,23.77,23.77,0,0,1-13.516-4.347c-5.488-4.068-8.084-9.692-11.989-19.588l-28.293,28.495c15.578,6.017,20.608,8.881,25.7,24.762a26.928,26.928,0,0,0,3.721,11.949,27.361,27.361,0,0,0,47.439-27.269Z" transform="translate(-453.113 -559.179)"/></g><g transform="translate(93.812 10.608)"><path class="a" d="M446.935,575.345a16.794,16.794,0,1,0,16.772-17.782c-.351,0-.714.012-1.065.038A16.784,16.784,0,0,0,446.935,575.345Z" transform="translate(-446.907 -557.563)"/></g><g transform="translate(102.867 3.321)"><path class="g" d="M451.485,554.894a39.51,39.51,0,0,0,6.259-1.006,6.641,6.641,0,0,0,3.014.67,7.39,7.39,0,0,0,2.112-.3l7.913,5.42a18.94,18.94,0,0,1,3.483,30.734c-.863.948.879,3.8-.159,4.558L463.87,568.2l-11.826-11.612c-.454-.52,1.527,1.36,1.208.769C453.444,557.354,451.293,554.9,451.485,554.894Z" transform="translate(-451.473 -553.889)"/></g><g transform="translate(107.105 28.622)"><path class="a" d="M466.578,566.647,477.9,606.324l-24.289-.093.619-30.355Z" transform="translate(-453.61 -566.647)"/></g><g transform="translate(113.285 17.499)"><circle class="a" cx="6.708" cy="6.708" r="6.708"/></g><g transform="translate(52.299 368.341)"><path class="f" d="M455.868,745.1c.049,1.351.1,2.735.129,4.1H428.611a2.593,2.593,0,0,1-2.154-4.07.049.049,0,0,1,.032-.016,12.7,12.7,0,0,1,6.834-4.5c3.73-.869,8.074-1.9,8.074-1.9-.05-.258-.081-.514-.129-.771h14.424C455.741,740.565,455.8,742.945,455.868,745.1Z" transform="translate(-425.975 -737.943)"/></g><g transform="translate(120.917 368.341)"><path class="f" d="M490.6,749.2H463.21a2.593,2.593,0,0,1-2.154-4.07l.032-.032a12.757,12.757,0,0,1,6.834-4.486c3.73-.869,8.074-1.9,8.074-1.9-.05-.258-.081-.514-.129-.771h14.313c.111,2.412.208,4.791.288,7.156C490.517,746.449,490.564,747.833,490.6,749.2Z" transform="translate(-460.574 -737.943)"/></g></g><g transform="translate(1332.199 345.881)"><g transform="translate(0 1.023)"><path class="h" d="M734.543,821.523H572.166a21.005,21.005,0,0,1-20.98-20.982V665.472a25.139,25.139,0,0,0-25.11-25.11h-27.63a3.652,3.652,0,1,0,0,7.3h27.63a17.825,17.825,0,0,1,17.805,17.805V800.541a28.318,28.318,0,0,0,28.285,28.285H734.543a3.651,3.651,0,0,0,0-7.3Z" transform="translate(-494.793 -640.362)"/></g><rect class="i" width="159.862" height="34.687" rx="4.816" transform="translate(66.315 137.408)"/><g transform="translate(71.594)"><rect class="f" width="149.305" height="108.585" rx="5.957" transform="translate(0 23.062)"/><g transform="translate(48.532)"><path class="f" d="M593.025,707.88H569.943A14.6,14.6,0,0,1,555.364,693.3V654.425a14.6,14.6,0,0,1,14.579-14.579h23.083A14.6,14.6,0,0,1,607.6,654.425V693.3A14.6,14.6,0,0,1,593.025,707.88Zm-23.083-59.53a6.081,6.081,0,0,0-6.075,6.075V693.3a6.083,6.083,0,0,0,6.075,6.077h23.083A6.083,6.083,0,0,0,599.1,693.3V654.425a6.081,6.081,0,0,0-6.075-6.075Z" transform="translate(-555.364 -639.846)"/></g><g transform="translate(21.004 23.062)"><rect class="h" width="7.568" height="108.585"/><rect class="h" width="7.568" height="108.585" transform="translate(99.729)"/></g></g><g transform="translate(78.985 196.829)"><circle class="f" cx="8.446" cy="8.446" r="8.446"/><g transform="translate(126.683)"><circle class="f" cx="8.446" cy="8.446" r="8.446"/></g></g></g></g></svg>