<svg xmlns="http://www.w3.org/2000/svg" width="238" height="240.934" viewBox="0 0 238 240.934"><defs><style>.a,.b{fill:#19ac8a;}.b{opacity:0.5;}.c{fill:none;}.d{fill:#4d4e56;}.e{fill:#ffcf42;}.f{fill:#fff;}.g{fill:#f37561;}</style></defs><g transform="translate(0.006 0.101)"><g transform="translate(-0.006 -0.1)"><path class="a" d="M2.409,119a116.58,116.58,0,1,1,204.426,76.559h3.173a119,119,0,1,0-182.028,0h3.173A116.074,116.074,0,0,1,2.409,119Z" transform="translate(0.006 0.1)"/><path class="a" d="M4.94,118.868a113.934,113.934,0,1,1,198.235,76.569h1.654a115.175,115.175,0,1,0-171.878,0H34.6A113.521,113.521,0,0,1,4.94,118.868Z" transform="translate(0.131 0.224)"/><path class="a" d="M141.34,199.769a2.45,2.45,0,1,0,2.439-2.439,2.45,2.45,0,0,0-2.439,2.439" transform="translate(4.756 6.735)"/><path class="a" d="M93.517,217.156c0,3.483-2.067,5.737-5.344,5.737a3.1,3.1,0,0,1-3.38-3.173c0-2.46,2.346-3.8,6.6-3.8h2.067ZM89.91,205a15.163,15.163,0,0,0-6.729,1.447l-.124.062v3.5l.32-.176a11.215,11.215,0,0,1,5.416-1.633c2.977,0,4.682,1.705,4.682,4.682v.165h-2.3c-6.76,0-10.481,2.45-10.481,6.894,0,3.566,2.687,6.057,6.532,6.057a7.773,7.773,0,0,0,6.574-3.2v2.873h3.752V213.446c0-5.623-2.553-8.476-7.6-8.476" transform="translate(2.718 6.992)"/><path class="a" d="M108.965,222.874c-3.1,0-5.075-2.729-5.075-7.122s1.964-7.235,5-7.235c3.39,0,5.416,2.718,5.416,7.235,0,4.331-2.067,7.122-5.344,7.122M114.309,196v12.4a7.39,7.39,0,0,0-6.336-3.1c-5.013,0-8.383,4.134-8.383,10.284,0,6.336,3.411,10.749,8.269,10.749a7.545,7.545,0,0,0,6.729-3.773v3.411h3.793V196.083Z" transform="translate(3.353 6.69)"/><path class="a" d="M136.065,205.43l-5.819,11.69-5.385-11.69H120.23l9.933,20.248,10.2-20.248Z" transform="translate(4.047 7.007)"/><path class="a" d="M145.617,205.43h-3.9v20.248h4.114V205.43Z" transform="translate(4.769 7.007)"/><path class="a" d="M150.359,210.626c0,2.853,1.964,4.362,5.571,6.129,2.284,1.116,3.473,1.767,3.473,3.349s-1.468,2.667-3.731,2.667a11.855,11.855,0,0,1-5.168-1.323l-.31-.145-.124,3.566.134.052a14.409,14.409,0,0,0,5.292,1.034c5.023,0,8.269-2.4,8.269-6.1,0-3.1-2.067-4.651-5.612-6.315-2.615-1.22-3.7-1.943-3.7-3.235s1.22-2.067,3.1-2.067a11.37,11.37,0,0,1,4.92,1.127l.3.145.186-3.494-.176-.062a17.831,17.831,0,0,0-4.992-.744c-4.445,0-7.442,2.171-7.442,5.416" transform="translate(5.049 7)"/><path class="a" d="M176.1,222.809c-3.411,0-5.706-2.925-5.706-7.235s2.295-7.318,5.706-7.318,5.7,2.863,5.7,7.318-2.233,7.235-5.7,7.235M176.045,205c-6.2,0-9.995,4.062-9.995,10.6s3.824,10.594,9.995,10.594S186.1,222.137,186.1,215.6,182.247,205,176.045,205" transform="translate(5.586 6.993)"/><path class="a" d="M192.9,208.729v-3.287H189.15V225.67h4.134v-10.16c0-4.258,1.788-6.6,5.034-6.6a5.363,5.363,0,0,1,1.478.227l.269.072.134-4-1.767-.134a6.036,6.036,0,0,0-5.5,3.638" transform="translate(6.363 6.995)"/><path class="b" d="M206.383,206.85h.393c.486,0,.724-.176.724-.527s-.248-.558-.786-.558h-.331Zm.517-1.778c1.147,0,1.736.413,1.736,1.168a1.085,1.085,0,0,1-.858,1.034l.9,1.767h-1.209l-.765-1.592h-.32v1.592h-1.106v-3.99ZM204.74,205a3.1,3.1,0,0,0-.9,2.171,2.945,2.945,0,0,0,.847,2.067,2.987,2.987,0,0,0,2.14.92,3.1,3.1,0,0,0,2.067-.868,2.915,2.915,0,0,0,.889-2.129,3,3,0,0,0-3-3.018,2.956,2.956,0,0,0-2.067.848m4.734-.4a3.638,3.638,0,0,1,1.034,2.574,3.566,3.566,0,0,1-1.034,2.6,3.684,3.684,0,0,1-6.243-2.636,3.69,3.69,0,0,1,1.116-2.636,3.5,3.5,0,0,1,2.543-1.034,3.69,3.69,0,0,1,2.646,1.106" transform="translate(6.835 6.941)"/><path class="c" d="M86.438,127.34a24.548,24.548,0,1,0,24.538,24.545A24.548,24.548,0,0,0,86.438,127.34Z" transform="translate(2.086 4.383)"/><path class="c" d="M136.246,123.534a30.388,30.388,0,0,1,9.675-1.86,72.146,72.146,0,0,0-29.8-5.933,75.97,75.97,0,0,0-29.892,5.809,30.77,30.77,0,0,1,30.026,28.486,30.915,30.915,0,0,1,2.708-10.522,30.574,30.574,0,0,1,17.282-15.98Z" transform="translate(2.904 3.993)"/><path class="c" d="M137.22,128.97A24.527,24.527,0,0,0,122.75,160.5h0a24.548,24.548,0,1,0,14.47-31.525Z" transform="translate(4.08 4.386)"/><path class="d" d="M176.792,141.909a30.667,30.667,0,0,0-4.134-7.669c1.447-6.2,6.047-12.3,6.047-12.3H158.146c-11.514-7.442-25.5-11.37-40.993-11.37-16.062,0-30.574,4.041-42.026,11.525H55.871s4.538,6.067,6.016,12.186a30.715,30.715,0,1,0,48.74,37.39l6.537,9.8,6.615-9.892a30.751,30.751,0,0,0,53.014-29.675ZM86.652,176.989a24.548,24.548,0,1,1,24.538-24.541,24.548,24.548,0,0,1-24.538,24.541Zm30.636-26.781a30.77,30.77,0,0,0-29.975-28.486,75.97,75.97,0,0,1,29.892-5.809,72.146,72.146,0,0,1,29.768,5.933,30.605,30.605,0,0,0-26.956,17.84,30.915,30.915,0,0,0-2.729,10.522Zm39.153,25.385a24.538,24.538,0,0,1-31.525-14.532h0a24.548,24.548,0,1,1,31.525,14.532Z" transform="translate(1.872 3.819)"/><path class="d" d="M29.4,199.532l-3.69,1.271v4.827H21.58v3.246h3.979v10.4c0,4.941,1.685,6.956,5.819,6.956a11.659,11.659,0,0,0,3.1-.393h.165l-.052-3.359-.289.093a6.025,6.025,0,0,1-1.933.434c-1.943,0-2.667-1.106-2.667-4.052V208.917h4.713v-3.246H29.694v-6.2Z" transform="translate(0.731 6.807)"/><path class="d" d="M41.662,208.729v-3.287H37.91V225.67h4.134v-10.16c0-4.258,1.788-6.6,5.034-6.6a5.365,5.365,0,0,1,1.478.227l.269.072.134-4-1.767-.134a6.026,6.026,0,0,0-5.5,3.638" transform="translate(1.28 6.995)"/><path class="d" d="M69.085,222.7c-3.256,0-5.271-2.78-5.271-7.235,0-4.3,2.129-7.08,5.426-7.08s5.075,2.636,5.075,7.039-2.005,7.287-5.23,7.287M70.222,205a7.835,7.835,0,0,0-6.76,3.773v-3.3H59.71v28.465h4.134V222.893a7.463,7.463,0,0,0,6.264,3.1c5.168,0,8.538-4.248,8.538-10.822,0-6.1-3.37-10.212-8.393-10.212" transform="translate(2.013 6.991)"/><path class="d" d="M55.777,205.43h-3.9v20.248h4.114V205.43Z" transform="translate(1.75 7.007)"/><path class="d" d="M51.5,199.769a2.45,2.45,0,1,0,2.45-2.439,2.45,2.45,0,0,0-2.45,2.439" transform="translate(1.737 6.735)"/><path class="e" d="M136.246,123.534a30.388,30.388,0,0,1,9.675-1.86,72.146,72.146,0,0,0-29.8-5.933,75.97,75.97,0,0,0-29.892,5.809,30.77,30.77,0,0,1,30.026,28.486,30.915,30.915,0,0,1,2.708-10.522,30.574,30.574,0,0,1,17.282-15.98Z" transform="translate(2.904 3.993)"/><path class="f" d="M137.22,128.97A24.527,24.527,0,0,0,122.75,160.5h0a24.548,24.548,0,1,0,14.47-31.525Zm8.445,37.83a15.194,15.194,0,1,1,15.173-15.194A15.194,15.194,0,0,1,145.665,166.8Z" transform="translate(4.08 4.386)"/><path class="f" d="M145.194,141.19a9.964,9.964,0,1,0,9.954,9.954,9.964,9.964,0,0,0-9.954-9.954Zm0,15.07a5.106,5.106,0,1,1,3.633-1.517A5.116,5.116,0,0,1,145.194,156.26Z" transform="translate(4.55 4.848)"/><path class="f" d="M85.595,141.19a9.964,9.964,0,1,0,9.933,9.954A9.964,9.964,0,0,0,85.595,141.19Zm0,15.07a5.126,5.126,0,1,0-.021,0Z" transform="translate(2.547 4.848)"/><path class="f" d="M86.438,127.34a24.548,24.548,0,1,0,24.538,24.545A24.548,24.548,0,0,0,86.438,127.34ZM86.056,166.8a15.194,15.194,0,1,1,15.163-15.194A15.194,15.194,0,0,1,86.056,166.8Z" transform="translate(2.086 4.383)"/><path class="g" d="M85.417,145.88a5.116,5.116,0,1,0,5.106,5.106A5.116,5.116,0,0,0,85.417,145.88Z" transform="translate(2.704 5.006)"/><path class="a" d="M145.037,145.88a5.1,5.1,0,1,0,3.614,1.492,5.116,5.116,0,0,0-3.614-1.492Z" transform="translate(4.708 5.006)"/><path class="c" d="M136.246,123.534a30.388,30.388,0,0,1,9.675-1.86,72.146,72.146,0,0,0-29.8-5.933,75.97,75.97,0,0,0-29.892,5.809,30.77,30.77,0,0,1,30.026,28.486,30.915,30.915,0,0,1,2.708-10.522,30.574,30.574,0,0,1,17.282-15.98Z" transform="translate(2.904 3.993)"/><path class="c" d="M86.438,127.34a24.548,24.548,0,1,0,24.538,24.545A24.548,24.548,0,0,0,86.438,127.34Z" transform="translate(2.086 4.383)"/><path class="c" d="M137.22,128.97A24.527,24.527,0,0,0,122.75,160.5h0a24.548,24.548,0,1,0,14.47-31.525Z" transform="translate(4.08 4.386)"/><path class="d" d="M85.765,136.13a15.194,15.194,0,1,0,15.163,15.18,15.194,15.194,0,0,0-15.163-15.18Zm0,25.148a9.964,9.964,0,1,1,9.933-9.964A9.964,9.964,0,0,1,85.765,161.278Z" transform="translate(2.377 4.678)"/><path class="d" d="M145.365,136.13a15.194,15.194,0,1,0,15.173,15.184,15.194,15.194,0,0,0-15.173-15.184Zm0,25.148a9.964,9.964,0,1,1,9.954-9.964A9.964,9.964,0,0,1,145.365,161.278Z" transform="translate(4.38 4.678)"/><path class="d" d="M182.94,123.753h.382c.475,0,.7-.165.7-.517s-.238-.537-.765-.537h-.32Zm.506-1.726c1.127,0,1.685.4,1.685,1.137a1.034,1.034,0,0,1-.827,1.034l.868,1.736h-1.178l-.734-1.571h-.32v1.571h-1.034v-3.886Zm-2.067-.072a2.987,2.987,0,0,0-.879,2.067,2.842,2.842,0,0,0,.827,2.067,2.873,2.873,0,0,0,2.067.889,3.008,3.008,0,0,0,2.067-.837,2.884,2.884,0,0,0,.868-2.067,2.935,2.935,0,0,0-4.972-2.067m4.61-.393a3.5,3.5,0,0,1,1.034,2.5,3.463,3.463,0,0,1-1.034,2.543,3.659,3.659,0,0,1-2.532,1.034,3.462,3.462,0,0,1-2.532-1.034,3.5,3.5,0,0,1-1.034-2.491,3.679,3.679,0,0,1,1.034-2.574,3.607,3.607,0,0,1,5.065.072" transform="translate(6.051 4.156)"/><path class="c" d="M86.438,127.34a24.548,24.548,0,1,0,24.538,24.545A24.548,24.548,0,0,0,86.438,127.34Z" transform="translate(2.086 4.383)"/><path class="c" d="M136.246,123.534a30.388,30.388,0,0,1,9.675-1.86,72.146,72.146,0,0,0-29.8-5.933,75.97,75.97,0,0,0-29.892,5.809,30.77,30.77,0,0,1,30.026,28.486,30.915,30.915,0,0,1,2.708-10.522,30.574,30.574,0,0,1,17.282-15.98Z" transform="translate(2.904 3.993)"/><path class="c" d="M137.22,128.97A24.527,24.527,0,0,0,122.75,160.5h0a24.548,24.548,0,1,0,14.47-31.525Z" transform="translate(4.08 4.386)"/><path class="d" d="M176.792,141.909a30.667,30.667,0,0,0-4.134-7.669c1.447-6.2,6.047-12.3,6.047-12.3H158.146c-11.514-7.442-25.5-11.37-40.993-11.37-16.062,0-30.574,4.041-42.026,11.525H55.871s4.538,6.067,6.016,12.186a30.715,30.715,0,1,0,48.74,37.39l6.537,9.8,6.615-9.892a30.751,30.751,0,0,0,53.014-29.675ZM86.652,176.989a24.548,24.548,0,1,1,24.538-24.541,24.548,24.548,0,0,1-24.538,24.541Zm30.636-26.781a30.77,30.77,0,0,0-29.975-28.486,75.97,75.97,0,0,1,29.892-5.809,72.146,72.146,0,0,1,29.768,5.933,30.605,30.605,0,0,0-26.956,17.84,30.915,30.915,0,0,0-2.729,10.522Zm39.153,25.385a24.538,24.538,0,0,1-31.525-14.532h0a24.548,24.548,0,1,1,31.525,14.532Z" transform="translate(1.872 3.819)"/><path class="d" d="M29.4,199.532l-3.69,1.271v4.827H21.58v3.246h3.979v10.4c0,4.941,1.685,6.956,5.819,6.956a11.659,11.659,0,0,0,3.1-.393h.165l-.052-3.359-.289.093a6.025,6.025,0,0,1-1.933.434c-1.943,0-2.667-1.106-2.667-4.052V208.917h4.713v-3.246H29.694v-6.2Z" transform="translate(0.731 6.807)"/><path class="d" d="M41.662,208.729v-3.287H37.91V225.67h4.134v-10.16c0-4.258,1.788-6.6,5.034-6.6a5.365,5.365,0,0,1,1.478.227l.269.072.134-4-1.767-.134a6.026,6.026,0,0,0-5.5,3.638" transform="translate(1.28 6.995)"/><path class="d" d="M69.085,222.7c-3.256,0-5.271-2.78-5.271-7.235,0-4.3,2.129-7.08,5.426-7.08s5.075,2.636,5.075,7.039-2.005,7.287-5.23,7.287M70.222,205a7.835,7.835,0,0,0-6.76,3.773v-3.3H59.71v28.465h4.134V222.893a7.463,7.463,0,0,0,6.264,3.1c5.168,0,8.538-4.248,8.538-10.822,0-6.1-3.37-10.212-8.393-10.212" transform="translate(2.013 6.991)"/><path class="d" d="M55.777,205.43h-3.9v20.248h4.114V205.43Z" transform="translate(1.75 7.007)"/><path class="d" d="M51.5,199.769a2.45,2.45,0,1,0,2.45-2.439,2.45,2.45,0,0,0-2.45,2.439" transform="translate(1.737 6.735)"/><path class="e" d="M136.246,123.534a30.388,30.388,0,0,1,9.675-1.86,72.146,72.146,0,0,0-29.8-5.933,75.97,75.97,0,0,0-29.892,5.809,30.77,30.77,0,0,1,30.026,28.486,30.915,30.915,0,0,1,2.708-10.522,30.574,30.574,0,0,1,17.282-15.98Z" transform="translate(2.904 3.993)"/><path class="f" d="M137.22,128.97A24.527,24.527,0,0,0,122.75,160.5h0a24.548,24.548,0,1,0,14.47-31.525Zm8.445,37.83a15.194,15.194,0,1,1,15.173-15.194A15.194,15.194,0,0,1,145.665,166.8Z" transform="translate(4.08 4.386)"/><path class="f" d="M145.194,141.19a9.964,9.964,0,1,0,9.954,9.954,9.964,9.964,0,0,0-9.954-9.954Zm0,15.07a5.106,5.106,0,1,1,3.633-1.517A5.116,5.116,0,0,1,145.194,156.26Z" transform="translate(4.55 4.848)"/><path class="f" d="M85.595,141.19a9.964,9.964,0,1,0,9.933,9.954A9.964,9.964,0,0,0,85.595,141.19Zm0,15.07a5.126,5.126,0,1,0-.021,0Z" transform="translate(2.547 4.848)"/><path class="f" d="M86.438,127.34a24.548,24.548,0,1,0,24.538,24.545A24.548,24.548,0,0,0,86.438,127.34ZM86.056,166.8a15.194,15.194,0,1,1,15.163-15.194A15.194,15.194,0,0,1,86.056,166.8Z" transform="translate(2.086 4.383)"/><path class="g" d="M85.417,145.88a5.116,5.116,0,1,0,5.106,5.106A5.116,5.116,0,0,0,85.417,145.88Z" transform="translate(2.704 5.006)"/><path class="a" d="M145.037,145.88a5.1,5.1,0,1,0,3.614,1.492,5.116,5.116,0,0,0-3.614-1.492Z" transform="translate(4.708 5.006)"/><path class="c" d="M136.246,123.534a30.388,30.388,0,0,1,9.675-1.86,72.146,72.146,0,0,0-29.8-5.933,75.97,75.97,0,0,0-29.892,5.809,30.77,30.77,0,0,1,30.026,28.486,30.915,30.915,0,0,1,2.708-10.522,30.574,30.574,0,0,1,17.282-15.98Z" transform="translate(2.904 3.993)"/><path class="c" d="M86.438,127.34a24.548,24.548,0,1,0,24.538,24.545A24.548,24.548,0,0,0,86.438,127.34Z" transform="translate(2.086 4.383)"/><path class="c" d="M137.22,128.97A24.527,24.527,0,0,0,122.75,160.5h0a24.548,24.548,0,1,0,14.47-31.525Z" transform="translate(4.08 4.386)"/><path class="d" d="M85.765,136.13a15.194,15.194,0,1,0,15.163,15.18,15.194,15.194,0,0,0-15.163-15.18Zm0,25.148a9.964,9.964,0,1,1,9.933-9.964A9.964,9.964,0,0,1,85.765,161.278Z" transform="translate(2.377 4.678)"/><path class="d" d="M145.365,136.13a15.194,15.194,0,1,0,15.173,15.184,15.194,15.194,0,0,0-15.173-15.184Zm0,25.148a9.964,9.964,0,1,1,9.954-9.964A9.964,9.964,0,0,1,145.365,161.278Z" transform="translate(4.38 4.678)"/><path class="d" d="M182.94,123.753h.382c.475,0,.7-.165.7-.517s-.238-.537-.765-.537h-.32Zm.506-1.726c1.127,0,1.685.4,1.685,1.137a1.034,1.034,0,0,1-.827,1.034l.868,1.736h-1.178l-.734-1.571h-.32v1.571h-1.034v-3.886Zm-2.067-.072a2.987,2.987,0,0,0-.879,2.067,2.842,2.842,0,0,0,.827,2.067,2.873,2.873,0,0,0,2.067.889,3.008,3.008,0,0,0,2.067-.837,2.884,2.884,0,0,0,.868-2.067,2.935,2.935,0,0,0-4.972-2.067m4.61-.393a3.5,3.5,0,0,1,1.034,2.5,3.463,3.463,0,0,1-1.034,2.543,3.659,3.659,0,0,1-2.532,1.034,3.462,3.462,0,0,1-2.532-1.034,3.5,3.5,0,0,1-1.034-2.491,3.679,3.679,0,0,1,1.034-2.574,3.607,3.607,0,0,1,5.065.072" transform="translate(6.051 4.156)"/><path class="d" d="M52.839,68.942a8.269,8.269,0,0,1-3.793-.848,6.2,6.2,0,0,1-2.594-2.45A7.235,7.235,0,0,1,45.5,61.9a7.339,7.339,0,0,1,.92-3.659,6.625,6.625,0,0,1,2.625-2.574,8,8,0,0,1,3.948-.941,9.458,9.458,0,0,1,2.326.279,7.235,7.235,0,0,1,2.005.806l-.455,2.346a8.641,8.641,0,0,0-3.814-1.034,4.92,4.92,0,0,0-2.4.568A4.072,4.072,0,0,0,49,59.309a4.889,4.889,0,0,0-.6,2.47,4.5,4.5,0,0,0,1.271,3.37A4.713,4.713,0,0,0,53.107,66.4a8,8,0,0,0,2.067-.279,8.817,8.817,0,0,0,2.067-.765l.145,2.47a8.382,8.382,0,0,1-2.129.827,10.707,10.707,0,0,1-2.419.289Z" transform="translate(1.535 1.943)"/><path class="d" d="M59.27,54.92h9.116v2.326H61.957v3.308h5.685v2.315H61.957v3.5h6.687V68.7H59.27Z" transform="translate(1.998 1.949)"/><path class="d" d="M70.73,54.92h4.486A5.519,5.519,0,0,1,78.958,56.1a4.01,4.01,0,0,1,1.354,3.225,4.134,4.134,0,0,1-.6,2.191,4.569,4.569,0,0,1-1.705,1.571l3.69,5.643H78.6L75.64,63.768H73.386v4.92H70.73Zm2.656,6.656H74.74q2.853,0,2.853-2.233a1.954,1.954,0,0,0-.693-1.633,3.266,3.266,0,0,0-2.067-.548H73.386Z" transform="translate(2.383 1.949)"/><path class="d" d="M85.6,57.215H81.17V54.92H92.819v2.295H88.385V68.729H85.6Z" transform="translate(2.734 1.949)"/><path class="d" d="M94.3,54.92h2.791V68.729H94.3Z" transform="translate(3.175 1.949)"/><path class="d" d="M99.84,54.92h8.889v2.326h-6.2v3.69h5.313v2.336h-5.313V68.76H99.84Z" transform="translate(3.361 1.949)"/><path class="d" d="M110.49,54.92h2.78V68.729h-2.78Z" transform="translate(3.719 1.949)"/><path class="d" d="M122.648,68.942a8.269,8.269,0,0,1-3.793-.848,6.264,6.264,0,0,1-2.6-2.45,7.824,7.824,0,0,1,0-7.4,6.553,6.553,0,0,1,2.625-2.574,7.979,7.979,0,0,1,3.938-.941,9.3,9.3,0,0,1,2.295.3,7.235,7.235,0,0,1,2.067.806l-.455,2.346a8.641,8.641,0,0,0-3.814-1.034,4.92,4.92,0,0,0-2.4.568,4.01,4.01,0,0,0-1.654,1.612,4.889,4.889,0,0,0-.6,2.47,4.5,4.5,0,0,0,1.271,3.37,4.693,4.693,0,0,0,3.432,1.251,8,8,0,0,0,2.067-.279,8.92,8.92,0,0,0,2.067-.765l.289,2.4a8.269,8.269,0,0,1-2.067.827A10.78,10.78,0,0,1,122.648,68.942Z" transform="translate(3.882 1.943)"/><path class="d" d="M133.447,54.92h2.946l5.488,13.809h-2.946l-1.3-3.628h-5.561l-1.333,3.628H128Zm3.421,8.031L134.8,57.39l-2.067,5.561Z" transform="translate(4.308 1.949)"/><path class="d" d="M144.954,57.215H140.52V54.92h11.638v2.295h-4.424V68.729h-2.78Z" transform="translate(4.728 1.949)"/><path class="d" d="M153.65,54.92h9.116v2.326h-6.429v3.308h5.685v2.315h-5.685v3.5h6.687V68.7H153.65Z" transform="translate(5.17 1.949)"/><path class="d" d="M172.138,68.878a4.393,4.393,0,0,1-2.16-.517,3.938,3.938,0,0,1-1.519-1.478,4.341,4.341,0,0,1-.558-2.212,5.727,5.727,0,0,1,.672-2.718,5.323,5.323,0,0,1,1.9-2.067A5,5,0,0,1,173.2,59.1a4.4,4.4,0,0,1,2.16.527,3.762,3.762,0,0,1,1.53,1.478,4.321,4.321,0,0,1,.568,2.212,5.612,5.612,0,0,1-.682,2.718,5.5,5.5,0,0,1-1.912,2.067A4.992,4.992,0,0,1,172.138,68.878Zm.155-1.871a2.636,2.636,0,0,0,1.5-.455,3.287,3.287,0,0,0,1.137-1.261,3.742,3.742,0,0,0,.434-1.809,2.532,2.532,0,0,0-.61-1.819,2.2,2.2,0,0,0-1.7-.662,2.791,2.791,0,0,0-1.519.444,3.349,3.349,0,0,0-1.116,1.271,3.742,3.742,0,0,0-.434,1.809,2.553,2.553,0,0,0,.62,1.819,2.181,2.181,0,0,0,1.654.661Z" transform="translate(5.648 2.09)"/><path class="d" d="M180.234,61.349H178.56l.32-1.757h1.7l.31-1.53a5.592,5.592,0,0,1,1.5-3.1A3.959,3.959,0,0,1,185.216,54a4.579,4.579,0,0,1,1.116.134,2.8,2.8,0,0,1,.9.372l-.413,1.705a2.956,2.956,0,0,0-1.488-.382,2.067,2.067,0,0,0-1.592.631,3.824,3.824,0,0,0-.848,1.954l-.238,1.22h2.563l-.331,1.757h-2.563L180.906,68.8h-2.067Z" transform="translate(6.007 1.918)"/><path class="d" d="M32.23,74.19H45v3.256h-9v4.631h7.969V85.3H35.992v4.961h9.364v3.256H32.23Z" transform="translate(1.089 2.597)"/><path class="d" d="M53.749,83.472l-6.439-9.3h4.527l4.351,6.636,4.258-6.615h4.445l-6.512,9.3,6.946,9.995H60.7l-4.786-7.349-4.765,7.38H46.7Z" transform="translate(1.576 2.596)"/><path class="d" d="M75.334,93.809a11.556,11.556,0,0,1-5.313-1.2,8.8,8.8,0,0,1-3.638-3.421,10.119,10.119,0,0,1-1.323-5.24,10.233,10.233,0,0,1,1.282-5.168,9.3,9.3,0,0,1,3.68-3.6,11.235,11.235,0,0,1,5.519-1.323,12.4,12.4,0,0,1,3.215.424,10.171,10.171,0,0,1,2.78,1.189l-.631,3.287a11.969,11.969,0,0,0-5.344-1.375,7.008,7.008,0,0,0-3.328.755A5.737,5.737,0,0,0,69.918,80.4a6.894,6.894,0,0,0-.786,3.494A6.274,6.274,0,0,0,70.91,88.61a6.553,6.553,0,0,0,4.806,1.747,11.68,11.68,0,0,0,2.822-.382A13.137,13.137,0,0,0,81.37,88.94l.4,3.359A11.3,11.3,0,0,1,78.8,93.447,14.471,14.471,0,0,1,75.334,93.809Z" transform="translate(2.192 2.586)"/><path class="d" d="M84.33,74.19H97.105v3.256H88.123v4.631h7.969V85.3H88.123v4.961h9.3v3.256H84.33Z" transform="translate(2.84 2.597)"/><path class="d" d="M100.38,74.19h3.886V90.314h8.755v3.2H100.38Z" transform="translate(3.379 2.597)"/><path class="d" d="M115.22,74.19h3.907V90.314h8.755v3.2H115.22Z" transform="translate(3.878 2.597)"/><path class="d" d="M130.06,74.19h12.765v3.256h-9v4.631h7.959V85.3h-7.959v4.961h9.364v3.256H130.06Z" transform="translate(4.377 2.597)"/><path class="d" d="M146.1,74.19h3.463l10.129,13.437V74.19h3.68V93.518h-3.452L149.79,80.2V93.518H146.1Z" transform="translate(4.916 2.597)"/><path class="d" d="M176.064,93.809a11.556,11.556,0,0,1-5.313-1.2,8.8,8.8,0,0,1-3.638-3.421,10.119,10.119,0,0,1-1.323-5.24,10.336,10.336,0,0,1,1.282-5.168,9.3,9.3,0,0,1,3.68-3.6,11.235,11.235,0,0,1,5.519-1.323,12.4,12.4,0,0,1,3.215.424A10.17,10.17,0,0,1,182.3,75.41l-.631,3.287a11.969,11.969,0,0,0-5.323-1.313,7.008,7.008,0,0,0-3.359.786,5.736,5.736,0,0,0-2.315,2.264,6.894,6.894,0,0,0-.837,3.463,6.274,6.274,0,0,0,1.778,4.713,6.553,6.553,0,0,0,4.806,1.747,11.834,11.834,0,0,0,2.832-.382,13.26,13.26,0,0,0,2.822-1.034l.4,3.359a11.163,11.163,0,0,1-3.028,1.106,14.47,14.47,0,0,1-3.38.4Z" transform="translate(5.578 2.586)"/><path class="d" d="M185.06,74.19h12.775v3.256h-9.013v4.631h7.969V85.3h-7.969v4.961h9.364v3.256H185.06Z" transform="translate(6.225 2.597)"/></g><g transform="translate(100.859 30.799)"><path class="d" d="M97.58,41.594V39.888a35.483,35.483,0,0,0,3-2.977,13.064,13.064,0,0,0,1.53-2.067,3.153,3.153,0,0,0,.424-1.509,1.6,1.6,0,0,0-.465-1.209,1.747,1.747,0,0,0-1.24-.434,3.349,3.349,0,0,0-1.457.341,4.548,4.548,0,0,0-1.3,1.034l-.393-1.881a4.434,4.434,0,0,1,1.571-1.034,5.333,5.333,0,0,1,1.933-.351,3.8,3.8,0,0,1,2.646.879,3.018,3.018,0,0,1,.982,2.377,5.106,5.106,0,0,1-.558,2.253,12.4,12.4,0,0,1-1.809,2.532,23.557,23.557,0,0,1-1.788,1.788h4.5v1.954Z" transform="translate(-97.58 -29.795)"/><path class="d" d="M110.738,41.84a3.6,3.6,0,0,1-3.1-1.592,7.607,7.607,0,0,1-1.116-4.424,7.648,7.648,0,0,1,1.116-4.434,3.866,3.866,0,0,1,6.2,0,7.628,7.628,0,0,1,1.116,4.424,7.6,7.6,0,0,1-1.116,4.413,3.628,3.628,0,0,1-3.1,1.612Zm0-1.974c1.261,0,1.892-1.344,1.892-4.041s-.631-4.052-1.892-4.052-1.871,1.354-1.871,4.052S109.487,39.866,110.738,39.866Z" transform="translate(-97.28 -29.793)"/><path class="d" d="M119.679,32.293l-2.987,1.333-.362-1.9,3.793-1.674h1.736V41.585h-2.191Z" transform="translate(-96.95 -29.786)"/><path class="d" d="M126.63,41.534l4.134-9.437H125.39V30.03h7.752v1.829L128.894,41.6Z" transform="translate(-96.645 -29.787)"/></g></g></svg>