<svg xmlns="http://www.w3.org/2000/svg" width="34" height="20" viewBox="0 0 34 20"><defs><style>.a{fill:#ffd68a;stroke:#ffd68a;stroke-miterlimit:10;}.b{fill:#e4001b;}.c{fill:#2e973b;}.d{fill:#040505;}</style></defs><g transform="translate(-5697.007 72.558)"><g transform="translate(5974.188 -507.997)"><path class="a" d="M-251.62,441.127a30.313,30.313,0,0,1,9.506-1.432,28.386,28.386,0,0,1,9.218,1.437c-5.118.123-9.219,3.414-9.22,7.458C-242.117,444.472-246.371,441.133-251.62,441.127Z" transform="translate(-18.092 -3.01)"/><path class="b" d="M-255.331,465.864a1.216,1.216,0,0,0-1.216,1.218,1.216,1.216,0,0,0,1.216,1.218,1.216,1.216,0,0,0,1.216-1.218A1.217,1.217,0,0,0-255.331,465.864Z" transform="translate(-13.714 -20.115)"/><path class="c" d="M-204.039,465.806a1.217,1.217,0,0,0-1.216,1.218,1.217,1.217,0,0,0,1.216,1.218,1.216,1.216,0,0,0,1.215-1.218A1.216,1.216,0,0,0-204.039,465.806Z" transform="translate(-47.805 -20.077)"/><g transform="translate(-277.181 435.439)"><path class="d" d="M-268.743,442.822a4.112,4.112,0,0,0-4.108,4.116,4.111,4.111,0,0,0,4.108,4.116,4.111,4.111,0,0,0,4.108-4.116A4.112,4.112,0,0,0-268.743,442.822Zm0,6.968a2.849,2.849,0,0,1-2.846-2.852,2.849,2.849,0,0,1,2.846-2.852,2.85,2.85,0,0,1,2.847,2.852A2.849,2.849,0,0,1-268.743,449.79Zm25.562-11.191h-5.656a20.337,20.337,0,0,0-11.342-3.16,21.279,21.279,0,0,0-11.614,3.16h-5.388a7.9,7.9,0,0,1,1.691,3.381,8.442,8.442,0,0,0-1.617,4.979,8.472,8.472,0,0,0,8.463,8.48,8.443,8.443,0,0,0,6.571-3.137,21.351,21.351,0,0,1,1.893,2.664s1.215-1.819,1.9-2.657a8.44,8.44,0,0,0,6.565,3.129,8.472,8.472,0,0,0,8.463-8.48,8.44,8.44,0,0,0-1.618-4.977A7.894,7.894,0,0,1-243.181,438.6Zm-25.463,15.187a6.82,6.82,0,0,1-6.813-6.827,6.82,6.82,0,0,1,6.813-6.826,6.821,6.821,0,0,1,6.814,6.826A6.82,6.82,0,0,1-268.644,453.785Zm.013-15.3a21.64,21.64,0,0,1,8.452-1.626,20.3,20.3,0,0,1,8.2,1.633,8.469,8.469,0,0,0-8.2,8.47A8.471,8.471,0,0,0-268.631,438.481Zm16.914,15.3a6.82,6.82,0,0,1-6.814-6.827,6.82,6.82,0,0,1,6.814-6.826,6.82,6.82,0,0,1,6.813,6.826A6.819,6.819,0,0,1-251.717,453.785Zm0-10.982a4.111,4.111,0,0,0-4.108,4.116,4.112,4.112,0,0,0,4.108,4.116,4.112,4.112,0,0,0,4.108-4.116A4.112,4.112,0,0,0-251.72,442.8Zm0,6.968a2.849,2.849,0,0,1-2.846-2.852,2.85,2.85,0,0,1,2.846-2.853,2.85,2.85,0,0,1,2.847,2.853A2.85,2.85,0,0,1-251.72,449.771Z" transform="translate(277.181 -435.439)"/></g></g></g></svg>